# xmcd CD database file
#
# Track frame offsets:
#	150
#	19920
#	40165
#	56152
#	70605
#	91165
#	100770
#	118085
#	133932
#	151157
#	165450
#
# Disc length: 4575 seconds
#
# Revision: 0
# Processed by: cddbd v1.5.2PL0 Copyright (c) Steve Scherf et al.
# Submitted via: CDex 1.51
#
DISCID=8911dd0b
DTITLE=Doug Sahm - S.Q.D. '98
DYEAR=1998
DGENRE=Country
TTITLE0=Get a life
TTITLE1=St. Olav's gate
TTITLE2=Goodbye San Francisco, hello Amsterdam
TTITLE3=Give back the key to my heart
TTITLE4=Malmö Mama
TTITLE5=On bended knee
TTITLE6=Louis Riel
TTITLE7=The ballad of Davy Crockett
TTITLE8=Sooner or later
TTITLE9=Invitation to the blues
TTITLE10=Bonus track
EXTD=YEAR: 1998
EXTT0=
EXTT1=
EXTT2=
EXTT3=
EXTT4=
EXTT5=
EXTT6=
EXTT7=
EXTT8=
EXTT9=
EXTT10=
PLAYORDER=
